<<svg xmlns="http://www.w3.org/2000/svg" width="108" height="108" viewBox="0 0 108 108">
 <rect class="nucleo-frame" x="0" y="0" width="108" height="108" rx="76" ry="76" fill="#e2e2e2"></rect> 
<g class="nc-icon-wrapper" transform="translate(10.16 8.16) scale(1.86)" " fill="#6b4da7">
        <path d="M10 16c-4.42 0-8 3.58-8 8s3.58 8 8 8 8-3.58 8-8-3.58-8-8-8zm24-4c-6.63 0-12 5.37-12 12s5.37 12 12 12 12-5.37 12-12-5.37-12-12-12zm0 20c-4.42 0-8-3.58-8-8s3.58-8 8-8 8 3.58 8 8-3.58 8-8 8z"></path>
    </g></svg>